<svg width="14" height="16" viewBox="0 0 14 16" fill="#000000" xmlns="http://www.w3.org/2000/svg">
	<path d="M0 3.50876C0 3.12119 0.268629 2.80701 0.6 2.80701L2.67219 2.80664C3.08391 2.79443 3.44712 2.48825 3.58722 2.03528C3.5909 2.02337 3.59514 2.00868 3.61033 1.95538L3.69962 1.64204C3.75426 1.44992 3.80186 1.28254 3.86847 1.13293C4.13162 0.541884 4.6185 0.131454 5.18114 0.0263742C5.32356 -0.000223918 5.47438 -0.000111433 5.64749 1.77292e-05H8.35264C8.52576 -0.000111433 8.67658 -0.000223918 8.81899 0.0263742C9.38163 0.131454 9.86851 0.541884 10.1317 1.13293C10.1983 1.28254 10.2459 1.44992 10.3005 1.64204L10.3898 1.95538C10.405 2.00868 10.4092 2.02337 10.4129 2.03528C10.553 2.48825 10.9883 2.79481 11.4 2.80701H13.4C13.7314 2.80701 14 3.12119 14 3.50876C14 3.89632 13.7314 4.2105 13.4 4.2105H0.6C0.268629 4.2105 0 3.89632 0 3.50876Z" fill="#222222" fill-opacity="0.3" />
	<path fill-rule="evenodd" clip-rule="evenodd" d="M6.68547 16H7.31453C9.47887 16 10.561 16 11.2646 15.2913C11.9683 14.5825 12.0402 13.42 12.1842 11.0948L12.3917 7.74453C12.4698 6.48295 12.5088 5.85216 12.1558 5.45243C11.8029 5.0527 11.2068 5.0527 10.0146 5.0527H3.98537C2.79321 5.0527 2.19713 5.0527 1.84415 5.45243C1.49117 5.85216 1.53023 6.48295 1.60835 7.74454L1.81579 11.0948C1.95976 13.42 2.03175 14.5825 2.73536 15.2913C3.43897 16 4.52113 16 6.68547 16ZM5.63599 8.15083C5.60394 7.80375 5.31808 7.55053 4.99751 7.58524C4.67694 7.61994 4.44306 7.92944 4.47512 8.27652L4.86401 12.487C4.89606 12.8341 5.18192 13.0873 5.50249 13.0526C5.82305 13.0179 6.05694 12.7084 6.02488 12.3613L5.63599 8.15083ZM9.00249 7.58524C9.32306 7.61994 9.55694 7.92944 9.52488 8.27652L9.13599 12.487C9.10394 12.8341 8.81808 13.0873 8.49751 13.0526C8.17695 13.0179 7.94306 12.7084 7.97512 12.3613L8.36401 8.15083C8.39606 7.80375 8.68192 7.55053 9.00249 7.58524Z" />
</svg>
